<mxfile host="app.diagrams.net" agent="Mozilla/5.0 (Windows NT 10.0; Win64; x64) AppleWebKit/537.36 (KHTML, like Gecko) Chrome/122.0.0.0 Safari/537.36" version="26.2.12">
  <diagram id="C5RBs43oDa-KdzZeNtuy" name="Page-1">
    <mxGraphModel dx="3480" dy="1873" grid="1" gridSize="10" guides="1" tooltips="1" connect="1" arrows="1" fold="1" page="1" pageScale="1" pageWidth="827" pageHeight="1169" math="0" shadow="0">
      <root>
        <mxCell id="WIyWlLk6GJQsqaUBKTNV-0" />
        <mxCell id="WIyWlLk6GJQsqaUBKTNV-1" parent="WIyWlLk6GJQsqaUBKTNV-0" />
        <mxCell id="jjTm92XMzpjh0tlSSGX0-0" value="Finance Manager Flow (FM)" style="text;html=1;align=center;verticalAlign=middle;whiteSpace=wrap;rounded=0;fontSize=24;fontStyle=1" vertex="1" parent="WIyWlLk6GJQsqaUBKTNV-1">
          <mxGeometry x="36" y="51" width="334" height="30" as="geometry" />
        </mxCell>
        <mxCell id="jjTm92XMzpjh0tlSSGX0-1" value="1. View &amp;amp; Approve Purchase Order" style="text;html=1;align=center;verticalAlign=middle;whiteSpace=wrap;rounded=0;fontSize=17;fontStyle=1" vertex="1" parent="WIyWlLk6GJQsqaUBKTNV-1">
          <mxGeometry x="50" y="134" width="300" height="30" as="geometry" />
        </mxCell>
        <mxCell id="jjTm92XMzpjh0tlSSGX0-2" value="" style="edgeStyle=orthogonalEdgeStyle;rounded=0;orthogonalLoop=1;jettySize=auto;html=1;" edge="1" parent="WIyWlLk6GJQsqaUBKTNV-1" source="jjTm92XMzpjh0tlSSGX0-3" target="jjTm92XMzpjh0tlSSGX0-5">
          <mxGeometry relative="1" as="geometry" />
        </mxCell>
        <mxCell id="jjTm92XMzpjh0tlSSGX0-3" value="Start" style="rounded=1;whiteSpace=wrap;html=1;" vertex="1" parent="WIyWlLk6GJQsqaUBKTNV-1">
          <mxGeometry x="58" y="190" width="120" height="50" as="geometry" />
        </mxCell>
        <mxCell id="jjTm92XMzpjh0tlSSGX0-4" value="" style="edgeStyle=orthogonalEdgeStyle;rounded=0;orthogonalLoop=1;jettySize=auto;html=1;" edge="1" parent="WIyWlLk6GJQsqaUBKTNV-1" source="jjTm92XMzpjh0tlSSGX0-5" target="jjTm92XMzpjh0tlSSGX0-8">
          <mxGeometry relative="1" as="geometry" />
        </mxCell>
        <mxCell id="jjTm92XMzpjh0tlSSGX0-5" value="Select &quot;View Purchase Orders&quot;" style="whiteSpace=wrap;html=1;rounded=1;" vertex="1" parent="WIyWlLk6GJQsqaUBKTNV-1">
          <mxGeometry x="58" y="300" width="120" height="50" as="geometry" />
        </mxCell>
        <mxCell id="jjTm92XMzpjh0tlSSGX0-6" value="" style="edgeStyle=orthogonalEdgeStyle;rounded=0;orthogonalLoop=1;jettySize=auto;html=1;" edge="1" parent="WIyWlLk6GJQsqaUBKTNV-1" source="jjTm92XMzpjh0tlSSGX0-8" target="jjTm92XMzpjh0tlSSGX0-9">
          <mxGeometry relative="1" as="geometry" />
        </mxCell>
        <mxCell id="jjTm92XMzpjh0tlSSGX0-50" value="" style="edgeStyle=orthogonalEdgeStyle;rounded=0;orthogonalLoop=1;jettySize=auto;html=1;" edge="1" parent="WIyWlLk6GJQsqaUBKTNV-1" source="jjTm92XMzpjh0tlSSGX0-8" target="jjTm92XMzpjh0tlSSGX0-49">
          <mxGeometry relative="1" as="geometry" />
        </mxCell>
        <mxCell id="jjTm92XMzpjh0tlSSGX0-8" value="Display List of POs with Status" style="whiteSpace=wrap;html=1;rounded=1;" vertex="1" parent="WIyWlLk6GJQsqaUBKTNV-1">
          <mxGeometry x="58" y="425" width="120" height="55" as="geometry" />
        </mxCell>
        <mxCell id="jjTm92XMzpjh0tlSSGX0-9" value="Pending Approval" style="whiteSpace=wrap;html=1;rounded=1;" vertex="1" parent="WIyWlLk6GJQsqaUBKTNV-1">
          <mxGeometry x="258" y="425" width="120" height="55" as="geometry" />
        </mxCell>
        <mxCell id="jjTm92XMzpjh0tlSSGX0-25" value="5.&amp;nbsp; Display Requisition" style="text;html=1;align=center;verticalAlign=middle;whiteSpace=wrap;rounded=0;fontSize=17;fontStyle=1" vertex="1" parent="WIyWlLk6GJQsqaUBKTNV-1">
          <mxGeometry x="2170" y="135" width="310" height="30" as="geometry" />
        </mxCell>
        <mxCell id="jjTm92XMzpjh0tlSSGX0-26" value="" style="edgeStyle=orthogonalEdgeStyle;rounded=0;orthogonalLoop=1;jettySize=auto;html=1;" edge="1" parent="WIyWlLk6GJQsqaUBKTNV-1" source="jjTm92XMzpjh0tlSSGX0-27" target="jjTm92XMzpjh0tlSSGX0-29">
          <mxGeometry relative="1" as="geometry" />
        </mxCell>
        <mxCell id="jjTm92XMzpjh0tlSSGX0-27" value="Start" style="rounded=1;whiteSpace=wrap;html=1;" vertex="1" parent="WIyWlLk6GJQsqaUBKTNV-1">
          <mxGeometry x="2233" y="187" width="120" height="50" as="geometry" />
        </mxCell>
        <mxCell id="jjTm92XMzpjh0tlSSGX0-28" value="" style="edgeStyle=orthogonalEdgeStyle;rounded=0;orthogonalLoop=1;jettySize=auto;html=1;" edge="1" parent="WIyWlLk6GJQsqaUBKTNV-1" source="jjTm92XMzpjh0tlSSGX0-29" target="jjTm92XMzpjh0tlSSGX0-32">
          <mxGeometry relative="1" as="geometry" />
        </mxCell>
        <mxCell id="jjTm92XMzpjh0tlSSGX0-29" value="Access Display PR&lt;span style=&quot;background-color: transparent;&quot;&gt;&amp;nbsp;m&lt;/span&gt;&lt;span style=&quot;background-color: transparent;&quot;&gt;enu&lt;/span&gt;" style="whiteSpace=wrap;html=1;rounded=1;" vertex="1" parent="WIyWlLk6GJQsqaUBKTNV-1">
          <mxGeometry x="2233" y="275" width="120" height="50" as="geometry" />
        </mxCell>
        <mxCell id="jjTm92XMzpjh0tlSSGX0-30" value="" style="edgeStyle=orthogonalEdgeStyle;rounded=0;orthogonalLoop=1;jettySize=auto;html=1;" edge="1" parent="WIyWlLk6GJQsqaUBKTNV-1" source="jjTm92XMzpjh0tlSSGX0-32" target="jjTm92XMzpjh0tlSSGX0-34">
          <mxGeometry relative="1" as="geometry" />
        </mxCell>
        <mxCell id="jjTm92XMzpjh0tlSSGX0-31" value="" style="edgeStyle=orthogonalEdgeStyle;rounded=0;orthogonalLoop=1;jettySize=auto;html=1;" edge="1" parent="WIyWlLk6GJQsqaUBKTNV-1" source="jjTm92XMzpjh0tlSSGX0-32" target="jjTm92XMzpjh0tlSSGX0-36">
          <mxGeometry relative="1" as="geometry" />
        </mxCell>
        <mxCell id="jjTm92XMzpjh0tlSSGX0-32" value="View List of PRs" style="whiteSpace=wrap;html=1;rounded=1;" vertex="1" parent="WIyWlLk6GJQsqaUBKTNV-1">
          <mxGeometry x="2233" y="365" width="120" height="55" as="geometry" />
        </mxCell>
        <mxCell id="jjTm92XMzpjh0tlSSGX0-33" value="" style="edgeStyle=orthogonalEdgeStyle;rounded=0;orthogonalLoop=1;jettySize=auto;html=1;" edge="1" parent="WIyWlLk6GJQsqaUBKTNV-1" source="jjTm92XMzpjh0tlSSGX0-34" target="jjTm92XMzpjh0tlSSGX0-35">
          <mxGeometry relative="1" as="geometry" />
        </mxCell>
        <mxCell id="jjTm92XMzpjh0tlSSGX0-34" value="View PR Details (Item Code, Quantity, Date Needed, Status)" style="whiteSpace=wrap;html=1;rounded=1;" vertex="1" parent="WIyWlLk6GJQsqaUBKTNV-1">
          <mxGeometry x="2233" y="465" width="120" height="60" as="geometry" />
        </mxCell>
        <mxCell id="jjTm92XMzpjh0tlSSGX0-35" value="End of View PR Process" style="whiteSpace=wrap;html=1;rounded=1;" vertex="1" parent="WIyWlLk6GJQsqaUBKTNV-1">
          <mxGeometry x="2233" y="570" width="120" height="50" as="geometry" />
        </mxCell>
        <mxCell id="jjTm92XMzpjh0tlSSGX0-36" value="Status&lt;div&gt;Pending, Approved, Rejected&lt;br&gt;&lt;/div&gt;" style="whiteSpace=wrap;html=1;rounded=1;" vertex="1" parent="WIyWlLk6GJQsqaUBKTNV-1">
          <mxGeometry x="2433" y="362.5" width="120" height="60" as="geometry" />
        </mxCell>
        <mxCell id="jjTm92XMzpjh0tlSSGX0-52" value="" style="edgeStyle=orthogonalEdgeStyle;rounded=0;orthogonalLoop=1;jettySize=auto;html=1;" edge="1" parent="WIyWlLk6GJQsqaUBKTNV-1" source="jjTm92XMzpjh0tlSSGX0-49" target="jjTm92XMzpjh0tlSSGX0-51">
          <mxGeometry relative="1" as="geometry" />
        </mxCell>
        <mxCell id="jjTm92XMzpjh0tlSSGX0-54" value="" style="edgeStyle=orthogonalEdgeStyle;rounded=0;orthogonalLoop=1;jettySize=auto;html=1;" edge="1" parent="WIyWlLk6GJQsqaUBKTNV-1" source="jjTm92XMzpjh0tlSSGX0-49" target="jjTm92XMzpjh0tlSSGX0-53">
          <mxGeometry relative="1" as="geometry" />
        </mxCell>
        <mxCell id="jjTm92XMzpjh0tlSSGX0-49" value="Select a PO" style="whiteSpace=wrap;html=1;rounded=1;" vertex="1" parent="WIyWlLk6GJQsqaUBKTNV-1">
          <mxGeometry x="58" y="557.5" width="120" height="60" as="geometry" />
        </mxCell>
        <mxCell id="jjTm92XMzpjh0tlSSGX0-51" value="View Item(s), Supplier(s), Quantity" style="whiteSpace=wrap;html=1;rounded=1;" vertex="1" parent="WIyWlLk6GJQsqaUBKTNV-1">
          <mxGeometry x="258" y="557.5" width="120" height="60" as="geometry" />
        </mxCell>
        <mxCell id="jjTm92XMzpjh0tlSSGX0-56" value="" style="edgeStyle=orthogonalEdgeStyle;rounded=0;orthogonalLoop=1;jettySize=auto;html=1;" edge="1" parent="WIyWlLk6GJQsqaUBKTNV-1" source="jjTm92XMzpjh0tlSSGX0-53" target="jjTm92XMzpjh0tlSSGX0-55">
          <mxGeometry relative="1" as="geometry" />
        </mxCell>
        <mxCell id="jjTm92XMzpjh0tlSSGX0-53" value="Approve or Decline PO" style="whiteSpace=wrap;html=1;rounded=1;" vertex="1" parent="WIyWlLk6GJQsqaUBKTNV-1">
          <mxGeometry x="58" y="697.5" width="120" height="60" as="geometry" />
        </mxCell>
        <mxCell id="jjTm92XMzpjh0tlSSGX0-58" value="" style="edgeStyle=orthogonalEdgeStyle;rounded=0;orthogonalLoop=1;jettySize=auto;html=1;" edge="1" parent="WIyWlLk6GJQsqaUBKTNV-1" source="jjTm92XMzpjh0tlSSGX0-55" target="jjTm92XMzpjh0tlSSGX0-57">
          <mxGeometry relative="1" as="geometry" />
        </mxCell>
        <mxCell id="jjTm92XMzpjh0tlSSGX0-60" value="" style="edgeStyle=orthogonalEdgeStyle;rounded=0;orthogonalLoop=1;jettySize=auto;html=1;" edge="1" parent="WIyWlLk6GJQsqaUBKTNV-1" source="jjTm92XMzpjh0tlSSGX0-55" target="jjTm92XMzpjh0tlSSGX0-59">
          <mxGeometry relative="1" as="geometry" />
        </mxCell>
        <mxCell id="jjTm92XMzpjh0tlSSGX0-55" value="Update PO Status" style="whiteSpace=wrap;html=1;rounded=1;" vertex="1" parent="WIyWlLk6GJQsqaUBKTNV-1">
          <mxGeometry x="58" y="837.5" width="120" height="60" as="geometry" />
        </mxCell>
        <mxCell id="jjTm92XMzpjh0tlSSGX0-57" value="&amp;nbsp;&quot;Approved&quot; or &quot;Declined&quot;" style="whiteSpace=wrap;html=1;rounded=1;" vertex="1" parent="WIyWlLk6GJQsqaUBKTNV-1">
          <mxGeometry x="258" y="837.5" width="120" height="60" as="geometry" />
        </mxCell>
        <mxCell id="jjTm92XMzpjh0tlSSGX0-62" value="" style="edgeStyle=orthogonalEdgeStyle;rounded=0;orthogonalLoop=1;jettySize=auto;html=1;" edge="1" parent="WIyWlLk6GJQsqaUBKTNV-1" source="jjTm92XMzpjh0tlSSGX0-59" target="jjTm92XMzpjh0tlSSGX0-61">
          <mxGeometry relative="1" as="geometry" />
        </mxCell>
        <mxCell id="jjTm92XMzpjh0tlSSGX0-59" value="PO Saved to File&amp;nbsp;&lt;div&gt;with Updated Status&lt;/div&gt;" style="whiteSpace=wrap;html=1;rounded=1;" vertex="1" parent="WIyWlLk6GJQsqaUBKTNV-1">
          <mxGeometry x="58" y="977.5" width="120" height="60" as="geometry" />
        </mxCell>
        <mxCell id="jjTm92XMzpjh0tlSSGX0-61" value="End of Flow" style="whiteSpace=wrap;html=1;rounded=1;" vertex="1" parent="WIyWlLk6GJQsqaUBKTNV-1">
          <mxGeometry x="58" y="1117.5" width="120" height="60" as="geometry" />
        </mxCell>
        <mxCell id="jjTm92XMzpjh0tlSSGX0-64" value="2. Verify Inventory Updates Before Payment" style="text;html=1;align=center;verticalAlign=middle;whiteSpace=wrap;rounded=0;fontSize=17;fontStyle=1" vertex="1" parent="WIyWlLk6GJQsqaUBKTNV-1">
          <mxGeometry x="596" y="135" width="374" height="30" as="geometry" />
        </mxCell>
        <mxCell id="jjTm92XMzpjh0tlSSGX0-65" value="" style="edgeStyle=orthogonalEdgeStyle;rounded=0;orthogonalLoop=1;jettySize=auto;html=1;" edge="1" parent="WIyWlLk6GJQsqaUBKTNV-1" source="jjTm92XMzpjh0tlSSGX0-66" target="jjTm92XMzpjh0tlSSGX0-68">
          <mxGeometry relative="1" as="geometry" />
        </mxCell>
        <mxCell id="jjTm92XMzpjh0tlSSGX0-66" value="Start" style="rounded=1;whiteSpace=wrap;html=1;" vertex="1" parent="WIyWlLk6GJQsqaUBKTNV-1">
          <mxGeometry x="604" y="191" width="120" height="50" as="geometry" />
        </mxCell>
        <mxCell id="jjTm92XMzpjh0tlSSGX0-67" value="" style="edgeStyle=orthogonalEdgeStyle;rounded=0;orthogonalLoop=1;jettySize=auto;html=1;" edge="1" parent="WIyWlLk6GJQsqaUBKTNV-1" source="jjTm92XMzpjh0tlSSGX0-68" target="jjTm92XMzpjh0tlSSGX0-71">
          <mxGeometry relative="1" as="geometry" />
        </mxCell>
        <mxCell id="jjTm92XMzpjh0tlSSGX0-68" value="Access &quot;Verify Inventory Updates&quot;" style="whiteSpace=wrap;html=1;rounded=1;" vertex="1" parent="WIyWlLk6GJQsqaUBKTNV-1">
          <mxGeometry x="604" y="301" width="120" height="50" as="geometry" />
        </mxCell>
        <mxCell id="jjTm92XMzpjh0tlSSGX0-70" value="" style="edgeStyle=orthogonalEdgeStyle;rounded=0;orthogonalLoop=1;jettySize=auto;html=1;" edge="1" parent="WIyWlLk6GJQsqaUBKTNV-1" source="jjTm92XMzpjh0tlSSGX0-71" target="jjTm92XMzpjh0tlSSGX0-75">
          <mxGeometry relative="1" as="geometry" />
        </mxCell>
        <mxCell id="jjTm92XMzpjh0tlSSGX0-71" value="System Displays Approved POs with Update Logs" style="whiteSpace=wrap;html=1;rounded=1;" vertex="1" parent="WIyWlLk6GJQsqaUBKTNV-1">
          <mxGeometry x="604" y="426" width="120" height="55" as="geometry" />
        </mxCell>
        <mxCell id="jjTm92XMzpjh0tlSSGX0-88" value="" style="edgeStyle=orthogonalEdgeStyle;rounded=0;orthogonalLoop=1;jettySize=auto;html=1;" edge="1" parent="WIyWlLk6GJQsqaUBKTNV-1" source="jjTm92XMzpjh0tlSSGX0-75" target="jjTm92XMzpjh0tlSSGX0-87">
          <mxGeometry relative="1" as="geometry" />
        </mxCell>
        <mxCell id="jjTm92XMzpjh0tlSSGX0-75" value="Cross-check Items Received vs Approved Quantities" style="whiteSpace=wrap;html=1;rounded=1;" vertex="1" parent="WIyWlLk6GJQsqaUBKTNV-1">
          <mxGeometry x="604" y="558.5" width="120" height="60" as="geometry" />
        </mxCell>
        <mxCell id="jjTm92XMzpjh0tlSSGX0-83" value="" style="edgeStyle=orthogonalEdgeStyle;rounded=0;orthogonalLoop=1;jettySize=auto;html=1;" edge="1" parent="WIyWlLk6GJQsqaUBKTNV-1" target="jjTm92XMzpjh0tlSSGX0-85">
          <mxGeometry relative="1" as="geometry">
            <mxPoint x="664" y="910" as="sourcePoint" />
          </mxGeometry>
        </mxCell>
        <mxCell id="jjTm92XMzpjh0tlSSGX0-85" value="End of Flow" style="whiteSpace=wrap;html=1;rounded=1;" vertex="1" parent="WIyWlLk6GJQsqaUBKTNV-1">
          <mxGeometry x="604" y="990" width="120" height="60" as="geometry" />
        </mxCell>
        <mxCell id="jjTm92XMzpjh0tlSSGX0-86" value="&lt;b&gt;&lt;font style=&quot;font-size: 11px; color: rgb(255, 34, 34);&quot;&gt;Notes: After IM update the stocked, then comes verified, then proceed to payment&lt;/font&gt;&lt;/b&gt;" style="text;html=1;align=center;verticalAlign=middle;whiteSpace=wrap;rounded=0;" vertex="1" parent="WIyWlLk6GJQsqaUBKTNV-1">
          <mxGeometry x="740" y="440" width="330" height="30" as="geometry" />
        </mxCell>
        <mxCell id="jjTm92XMzpjh0tlSSGX0-90" value="" style="edgeStyle=orthogonalEdgeStyle;rounded=0;orthogonalLoop=1;jettySize=auto;html=1;" edge="1" parent="WIyWlLk6GJQsqaUBKTNV-1" source="jjTm92XMzpjh0tlSSGX0-87" target="jjTm92XMzpjh0tlSSGX0-89">
          <mxGeometry relative="1" as="geometry" />
        </mxCell>
        <mxCell id="jjTm92XMzpjh0tlSSGX0-94" value="" style="edgeStyle=orthogonalEdgeStyle;rounded=0;orthogonalLoop=1;jettySize=auto;html=1;" edge="1" parent="WIyWlLk6GJQsqaUBKTNV-1" source="jjTm92XMzpjh0tlSSGX0-87" target="jjTm92XMzpjh0tlSSGX0-93">
          <mxGeometry relative="1" as="geometry" />
        </mxCell>
        <mxCell id="jjTm92XMzpjh0tlSSGX0-87" value="Issues?" style="rhombus;whiteSpace=wrap;html=1;rounded=1;" vertex="1" parent="WIyWlLk6GJQsqaUBKTNV-1">
          <mxGeometry x="611" y="676.75" width="106" height="101.5" as="geometry" />
        </mxCell>
        <mxCell id="jjTm92XMzpjh0tlSSGX0-89" value="Verified checked" style="whiteSpace=wrap;html=1;rounded=1;" vertex="1" parent="WIyWlLk6GJQsqaUBKTNV-1">
          <mxGeometry x="790" y="697.5" width="120" height="60" as="geometry" />
        </mxCell>
        <mxCell id="jjTm92XMzpjh0tlSSGX0-93" value="Flag Issues" style="whiteSpace=wrap;html=1;rounded=1;" vertex="1" parent="WIyWlLk6GJQsqaUBKTNV-1">
          <mxGeometry x="604" y="879" width="120" height="60" as="geometry" />
        </mxCell>
        <mxCell id="jjTm92XMzpjh0tlSSGX0-95" value="Yes" style="text;html=1;align=center;verticalAlign=middle;resizable=0;points=[];autosize=1;strokeColor=none;fillColor=none;" vertex="1" parent="WIyWlLk6GJQsqaUBKTNV-1">
          <mxGeometry x="720" y="698" width="40" height="30" as="geometry" />
        </mxCell>
        <mxCell id="jjTm92XMzpjh0tlSSGX0-96" value="No" style="text;html=1;align=center;verticalAlign=middle;resizable=0;points=[];autosize=1;strokeColor=none;fillColor=none;" vertex="1" parent="WIyWlLk6GJQsqaUBKTNV-1">
          <mxGeometry x="620" y="800" width="40" height="30" as="geometry" />
        </mxCell>
        <mxCell id="jjTm92XMzpjh0tlSSGX0-97" value="3. Process Supplier Payments" style="text;html=1;align=center;verticalAlign=middle;whiteSpace=wrap;rounded=0;fontSize=17;fontStyle=1" vertex="1" parent="WIyWlLk6GJQsqaUBKTNV-1">
          <mxGeometry x="1057" y="135" width="374" height="30" as="geometry" />
        </mxCell>
        <mxCell id="jjTm92XMzpjh0tlSSGX0-98" value="" style="edgeStyle=orthogonalEdgeStyle;rounded=0;orthogonalLoop=1;jettySize=auto;html=1;" edge="1" parent="WIyWlLk6GJQsqaUBKTNV-1" source="jjTm92XMzpjh0tlSSGX0-99" target="jjTm92XMzpjh0tlSSGX0-101">
          <mxGeometry relative="1" as="geometry" />
        </mxCell>
        <mxCell id="jjTm92XMzpjh0tlSSGX0-99" value="Start" style="rounded=1;whiteSpace=wrap;html=1;" vertex="1" parent="WIyWlLk6GJQsqaUBKTNV-1">
          <mxGeometry x="1118" y="191" width="120" height="50" as="geometry" />
        </mxCell>
        <mxCell id="jjTm92XMzpjh0tlSSGX0-100" value="" style="edgeStyle=orthogonalEdgeStyle;rounded=0;orthogonalLoop=1;jettySize=auto;html=1;" edge="1" parent="WIyWlLk6GJQsqaUBKTNV-1" source="jjTm92XMzpjh0tlSSGX0-101" target="jjTm92XMzpjh0tlSSGX0-103">
          <mxGeometry relative="1" as="geometry" />
        </mxCell>
        <mxCell id="jjTm92XMzpjh0tlSSGX0-101" value="Select &quot;Process Payments&quot;" style="whiteSpace=wrap;html=1;rounded=1;" vertex="1" parent="WIyWlLk6GJQsqaUBKTNV-1">
          <mxGeometry x="1118" y="301" width="120" height="50" as="geometry" />
        </mxCell>
        <mxCell id="jjTm92XMzpjh0tlSSGX0-102" value="" style="edgeStyle=orthogonalEdgeStyle;rounded=0;orthogonalLoop=1;jettySize=auto;html=1;" edge="1" parent="WIyWlLk6GJQsqaUBKTNV-1" source="jjTm92XMzpjh0tlSSGX0-103" target="jjTm92XMzpjh0tlSSGX0-105">
          <mxGeometry relative="1" as="geometry" />
        </mxCell>
        <mxCell id="jjTm92XMzpjh0tlSSGX0-103" value="System Displays List of Approved &amp;amp; Verified POs" style="whiteSpace=wrap;html=1;rounded=1;" vertex="1" parent="WIyWlLk6GJQsqaUBKTNV-1">
          <mxGeometry x="1118" y="426" width="120" height="55" as="geometry" />
        </mxCell>
        <mxCell id="jjTm92XMzpjh0tlSSGX0-121" value="" style="edgeStyle=orthogonalEdgeStyle;rounded=0;orthogonalLoop=1;jettySize=auto;html=1;" edge="1" parent="WIyWlLk6GJQsqaUBKTNV-1" source="jjTm92XMzpjh0tlSSGX0-105" target="jjTm92XMzpjh0tlSSGX0-120">
          <mxGeometry relative="1" as="geometry" />
        </mxCell>
        <mxCell id="jjTm92XMzpjh0tlSSGX0-105" value="Select PO" style="whiteSpace=wrap;html=1;rounded=1;" vertex="1" parent="WIyWlLk6GJQsqaUBKTNV-1">
          <mxGeometry x="1118" y="558.5" width="120" height="60" as="geometry" />
        </mxCell>
        <mxCell id="jjTm92XMzpjh0tlSSGX0-106" value="" style="edgeStyle=orthogonalEdgeStyle;rounded=0;orthogonalLoop=1;jettySize=auto;html=1;" edge="1" parent="WIyWlLk6GJQsqaUBKTNV-1" target="jjTm92XMzpjh0tlSSGX0-107">
          <mxGeometry relative="1" as="geometry">
            <mxPoint x="1178" y="910" as="sourcePoint" />
          </mxGeometry>
        </mxCell>
        <mxCell id="jjTm92XMzpjh0tlSSGX0-125" value="" style="edgeStyle=orthogonalEdgeStyle;rounded=0;orthogonalLoop=1;jettySize=auto;html=1;" edge="1" parent="WIyWlLk6GJQsqaUBKTNV-1" source="jjTm92XMzpjh0tlSSGX0-107" target="jjTm92XMzpjh0tlSSGX0-124">
          <mxGeometry relative="1" as="geometry" />
        </mxCell>
        <mxCell id="jjTm92XMzpjh0tlSSGX0-107" value="Save Payment Log to File" style="whiteSpace=wrap;html=1;rounded=1;" vertex="1" parent="WIyWlLk6GJQsqaUBKTNV-1">
          <mxGeometry x="1118" y="990" width="120" height="60" as="geometry" />
        </mxCell>
        <mxCell id="jjTm92XMzpjh0tlSSGX0-108" value="&lt;b&gt;&lt;font style=&quot;font-size: 11px; color: rgb(255, 34, 34);&quot;&gt;Notes: After Approve and verified! SO need to be done updating stock&lt;/font&gt;&lt;/b&gt;" style="text;html=1;align=center;verticalAlign=middle;whiteSpace=wrap;rounded=0;" vertex="1" parent="WIyWlLk6GJQsqaUBKTNV-1">
          <mxGeometry x="1246" y="440" width="330" height="30" as="geometry" />
        </mxCell>
        <mxCell id="jjTm92XMzpjh0tlSSGX0-110" value="" style="edgeStyle=orthogonalEdgeStyle;rounded=0;orthogonalLoop=1;jettySize=auto;html=1;" edge="1" parent="WIyWlLk6GJQsqaUBKTNV-1" target="jjTm92XMzpjh0tlSSGX0-113">
          <mxGeometry relative="1" as="geometry">
            <mxPoint x="1178" y="778.25" as="sourcePoint" />
          </mxGeometry>
        </mxCell>
        <mxCell id="jjTm92XMzpjh0tlSSGX0-113" value="Update PO Status to &quot;Paid&quot;" style="whiteSpace=wrap;html=1;rounded=1;" vertex="1" parent="WIyWlLk6GJQsqaUBKTNV-1">
          <mxGeometry x="1118" y="879" width="120" height="60" as="geometry" />
        </mxCell>
        <mxCell id="jjTm92XMzpjh0tlSSGX0-115" value="No" style="text;html=1;align=center;verticalAlign=middle;resizable=0;points=[];autosize=1;strokeColor=none;fillColor=none;" vertex="1" parent="WIyWlLk6GJQsqaUBKTNV-1">
          <mxGeometry x="1134" y="800" width="40" height="30" as="geometry" />
        </mxCell>
        <mxCell id="jjTm92XMzpjh0tlSSGX0-116" value="" style="edgeStyle=orthogonalEdgeStyle;rounded=0;orthogonalLoop=1;jettySize=auto;html=1;" edge="1" parent="WIyWlLk6GJQsqaUBKTNV-1" target="jjTm92XMzpjh0tlSSGX0-117">
          <mxGeometry relative="1" as="geometry">
            <mxPoint x="1238" y="588" as="sourcePoint" />
          </mxGeometry>
        </mxCell>
        <mxCell id="jjTm92XMzpjh0tlSSGX0-117" value="Confirm Payment&lt;div&gt;Details&lt;/div&gt;" style="whiteSpace=wrap;html=1;rounded=1;" vertex="1" parent="WIyWlLk6GJQsqaUBKTNV-1">
          <mxGeometry x="1311" y="558.5" width="120" height="60" as="geometry" />
        </mxCell>
        <mxCell id="jjTm92XMzpjh0tlSSGX0-123" value="" style="edgeStyle=orthogonalEdgeStyle;rounded=0;orthogonalLoop=1;jettySize=auto;html=1;" edge="1" parent="WIyWlLk6GJQsqaUBKTNV-1" source="jjTm92XMzpjh0tlSSGX0-120" target="jjTm92XMzpjh0tlSSGX0-122">
          <mxGeometry relative="1" as="geometry" />
        </mxCell>
        <mxCell id="jjTm92XMzpjh0tlSSGX0-120" value="Generate&lt;div&gt;Financial Report?&lt;/div&gt;" style="rhombus;whiteSpace=wrap;html=1;rounded=1;" vertex="1" parent="WIyWlLk6GJQsqaUBKTNV-1">
          <mxGeometry x="1117" y="686.75" width="122" height="103.25" as="geometry" />
        </mxCell>
        <mxCell id="jjTm92XMzpjh0tlSSGX0-122" value="Select Generate button" style="whiteSpace=wrap;html=1;rounded=1;" vertex="1" parent="WIyWlLk6GJQsqaUBKTNV-1">
          <mxGeometry x="1320" y="708.375" width="120" height="60" as="geometry" />
        </mxCell>
        <mxCell id="jjTm92XMzpjh0tlSSGX0-124" value="End" style="whiteSpace=wrap;html=1;rounded=1;" vertex="1" parent="WIyWlLk6GJQsqaUBKTNV-1">
          <mxGeometry x="1118" y="1130" width="120" height="60" as="geometry" />
        </mxCell>
        <mxCell id="jjTm92XMzpjh0tlSSGX0-126" value="" style="edgeStyle=orthogonalEdgeStyle;rounded=0;orthogonalLoop=1;jettySize=auto;html=1;" edge="1" parent="WIyWlLk6GJQsqaUBKTNV-1" source="jjTm92XMzpjh0tlSSGX0-127" target="jjTm92XMzpjh0tlSSGX0-129">
          <mxGeometry relative="1" as="geometry" />
        </mxCell>
        <mxCell id="jjTm92XMzpjh0tlSSGX0-127" value="Start" style="rounded=1;whiteSpace=wrap;html=1;" vertex="1" parent="WIyWlLk6GJQsqaUBKTNV-1">
          <mxGeometry x="1631" y="190" width="120" height="50" as="geometry" />
        </mxCell>
        <mxCell id="jjTm92XMzpjh0tlSSGX0-128" value="" style="edgeStyle=orthogonalEdgeStyle;rounded=0;orthogonalLoop=1;jettySize=auto;html=1;" edge="1" parent="WIyWlLk6GJQsqaUBKTNV-1" source="jjTm92XMzpjh0tlSSGX0-129" target="jjTm92XMzpjh0tlSSGX0-131">
          <mxGeometry relative="1" as="geometry" />
        </mxCell>
        <mxCell id="jjTm92XMzpjh0tlSSGX0-129" value="Select Generate button" style="whiteSpace=wrap;html=1;rounded=1;" vertex="1" parent="WIyWlLk6GJQsqaUBKTNV-1">
          <mxGeometry x="1631" y="300" width="120" height="50" as="geometry" />
        </mxCell>
        <mxCell id="jjTm92XMzpjh0tlSSGX0-130" value="" style="edgeStyle=orthogonalEdgeStyle;rounded=0;orthogonalLoop=1;jettySize=auto;html=1;" edge="1" parent="WIyWlLk6GJQsqaUBKTNV-1" source="jjTm92XMzpjh0tlSSGX0-131" target="jjTm92XMzpjh0tlSSGX0-133">
          <mxGeometry relative="1" as="geometry" />
        </mxCell>
        <mxCell id="jjTm92XMzpjh0tlSSGX0-131" value="System Compiles Data" style="whiteSpace=wrap;html=1;rounded=1;" vertex="1" parent="WIyWlLk6GJQsqaUBKTNV-1">
          <mxGeometry x="1631" y="425" width="120" height="55" as="geometry" />
        </mxCell>
        <mxCell id="jjTm92XMzpjh0tlSSGX0-132" value="" style="edgeStyle=orthogonalEdgeStyle;rounded=0;orthogonalLoop=1;jettySize=auto;html=1;" edge="1" parent="WIyWlLk6GJQsqaUBKTNV-1" source="jjTm92XMzpjh0tlSSGX0-133">
          <mxGeometry relative="1" as="geometry">
            <mxPoint x="1691" y="685.7500000000005" as="targetPoint" />
          </mxGeometry>
        </mxCell>
        <mxCell id="jjTm92XMzpjh0tlSSGX0-133" value="Display Report" style="whiteSpace=wrap;html=1;rounded=1;" vertex="1" parent="WIyWlLk6GJQsqaUBKTNV-1">
          <mxGeometry x="1631" y="557.5" width="120" height="60" as="geometry" />
        </mxCell>
        <mxCell id="jjTm92XMzpjh0tlSSGX0-135" value="" style="edgeStyle=orthogonalEdgeStyle;rounded=0;orthogonalLoop=1;jettySize=auto;html=1;" edge="1" parent="WIyWlLk6GJQsqaUBKTNV-1" target="jjTm92XMzpjh0tlSSGX0-146">
          <mxGeometry relative="1" as="geometry">
            <mxPoint x="1691" y="739" as="sourcePoint" />
          </mxGeometry>
        </mxCell>
        <mxCell id="jjTm92XMzpjh0tlSSGX0-139" value="&amp;nbsp;Option to Export (.pdf)" style="whiteSpace=wrap;html=1;rounded=1;" vertex="1" parent="WIyWlLk6GJQsqaUBKTNV-1">
          <mxGeometry x="1631" y="686.75" width="120" height="60" as="geometry" />
        </mxCell>
        <mxCell id="jjTm92XMzpjh0tlSSGX0-141" value="" style="edgeStyle=orthogonalEdgeStyle;rounded=0;orthogonalLoop=1;jettySize=auto;html=1;" edge="1" parent="WIyWlLk6GJQsqaUBKTNV-1">
          <mxGeometry relative="1" as="geometry">
            <mxPoint x="1751" y="453" as="sourcePoint" />
            <mxPoint x="1840" y="453.5636363636363" as="targetPoint" />
          </mxGeometry>
        </mxCell>
        <mxCell id="jjTm92XMzpjh0tlSSGX0-142" value="&lt;div&gt;- POs Approved&lt;/div&gt;&lt;div&gt;&amp;nbsp; &amp;nbsp;- Payments Processed&lt;/div&gt;&lt;div&gt;&amp;nbsp; &amp;nbsp;- Outstanding POs&lt;/div&gt;&lt;div&gt;&amp;nbsp; &amp;nbsp;- Supplier Payment Summary&lt;/div&gt;" style="whiteSpace=wrap;html=1;rounded=1;" vertex="1" parent="WIyWlLk6GJQsqaUBKTNV-1">
          <mxGeometry x="1840" y="415.25" width="246" height="76.5" as="geometry" />
        </mxCell>
        <mxCell id="jjTm92XMzpjh0tlSSGX0-146" value="End of Flow" style="whiteSpace=wrap;html=1;rounded=1;" vertex="1" parent="WIyWlLk6GJQsqaUBKTNV-1">
          <mxGeometry x="1631" y="819" width="120" height="60" as="geometry" />
        </mxCell>
        <mxCell id="jjTm92XMzpjh0tlSSGX0-147" value="4. Generate Financial Report" style="text;html=1;align=center;verticalAlign=middle;whiteSpace=wrap;rounded=0;fontSize=17;fontStyle=1" vertex="1" parent="WIyWlLk6GJQsqaUBKTNV-1">
          <mxGeometry x="1562" y="136" width="374" height="30" as="geometry" />
        </mxCell>
      </root>
    </mxGraphModel>
  </diagram>
</mxfile>
